<mxfile host="app.diagrams.net" modified="2021-04-17T23:05:57.273Z" agent="5.0 (Macintosh; Intel Mac OS X 10_14_6) AppleWebKit/537.36 (KHTML, like Gecko) Chrome/89.0.4389.128 Safari/537.36" etag="bsYUXzNuWIEp26NUt-CQ" version="14.6.1" type="github">
  <diagram id="_076c9fMJVTei92Ytuho" name="Page-1">
    <mxGraphModel dx="2036" dy="691" grid="1" gridSize="10" guides="1" tooltips="1" connect="1" arrows="1" fold="1" page="1" pageScale="1" pageWidth="850" pageHeight="1100" math="0" shadow="0">
      <root>
        <mxCell id="0" />
        <mxCell id="1" parent="0" />
        <mxCell id="VeWhwkaKPU7mNa02MyYt-22" style="edgeStyle=orthogonalEdgeStyle;rounded=0;orthogonalLoop=1;jettySize=auto;html=1;exitX=1;exitY=0.5;exitDx=0;exitDy=0;entryX=0;entryY=0.5;entryDx=0;entryDy=0;fontFamily=Helvetica;" parent="1" source="VeWhwkaKPU7mNa02MyYt-1" target="VeWhwkaKPU7mNa02MyYt-4" edge="1">
          <mxGeometry relative="1" as="geometry" />
        </mxCell>
        <mxCell id="VeWhwkaKPU7mNa02MyYt-23" value="powe button pressed" style="edgeLabel;html=1;align=center;verticalAlign=middle;resizable=0;points=[];fontFamily=Helvetica;" parent="VeWhwkaKPU7mNa02MyYt-22" vertex="1" connectable="0">
          <mxGeometry x="-0.2133" y="2" relative="1" as="geometry">
            <mxPoint as="offset" />
          </mxGeometry>
        </mxCell>
        <mxCell id="VeWhwkaKPU7mNa02MyYt-1" value="PowerOFF" style="html=1;" parent="1" vertex="1">
          <mxGeometry x="-50" y="190" width="130" height="50" as="geometry" />
        </mxCell>
        <mxCell id="VeWhwkaKPU7mNa02MyYt-9" style="edgeStyle=orthogonalEdgeStyle;rounded=0;orthogonalLoop=1;jettySize=auto;html=1;fontFamily=Helvetica;exitX=0.25;exitY=1;exitDx=0;exitDy=0;entryX=0.25;entryY=0;entryDx=0;entryDy=0;" parent="1" source="VeWhwkaKPU7mNa02MyYt-4" target="VeWhwkaKPU7mNa02MyYt-5" edge="1">
          <mxGeometry relative="1" as="geometry" />
        </mxCell>
        <mxCell id="VeWhwkaKPU7mNa02MyYt-16" value="user select Program" style="edgeLabel;html=1;align=center;verticalAlign=middle;resizable=0;points=[];fontFamily=Helvetica;" parent="VeWhwkaKPU7mNa02MyYt-9" vertex="1" connectable="0">
          <mxGeometry x="0.22" y="-3" relative="1" as="geometry">
            <mxPoint as="offset" />
          </mxGeometry>
        </mxCell>
        <mxCell id="VeWhwkaKPU7mNa02MyYt-24" style="edgeStyle=orthogonalEdgeStyle;rounded=0;orthogonalLoop=1;jettySize=auto;html=1;entryX=0.5;entryY=0;entryDx=0;entryDy=0;fontFamily=Helvetica;" parent="1" source="VeWhwkaKPU7mNa02MyYt-4" target="VeWhwkaKPU7mNa02MyYt-1" edge="1">
          <mxGeometry relative="1" as="geometry">
            <Array as="points">
              <mxPoint x="285" y="90" />
              <mxPoint x="15" y="90" />
            </Array>
          </mxGeometry>
        </mxCell>
        <mxCell id="VeWhwkaKPU7mNa02MyYt-26" value="power button pressed /&amp;nbsp; battery is dead" style="edgeLabel;html=1;align=center;verticalAlign=middle;resizable=0;points=[];fontFamily=Helvetica;" parent="VeWhwkaKPU7mNa02MyYt-24" vertex="1" connectable="0">
          <mxGeometry x="0.0741" y="1" relative="1" as="geometry">
            <mxPoint as="offset" />
          </mxGeometry>
        </mxCell>
        <mxCell id="qGMp3sspVOGmjnkW1GYy-7" style="edgeStyle=orthogonalEdgeStyle;rounded=0;orthogonalLoop=1;jettySize=auto;html=1;entryX=0;entryY=0.5;entryDx=0;entryDy=0;strokeColor=#050000;" edge="1" parent="1" source="VeWhwkaKPU7mNa02MyYt-4" target="qGMp3sspVOGmjnkW1GYy-6">
          <mxGeometry relative="1" as="geometry">
            <Array as="points">
              <mxPoint x="310" y="105" />
            </Array>
          </mxGeometry>
        </mxCell>
        <mxCell id="qGMp3sspVOGmjnkW1GYy-9" value="user select" style="edgeLabel;html=1;align=center;verticalAlign=middle;resizable=0;points=[];" vertex="1" connectable="0" parent="qGMp3sspVOGmjnkW1GYy-7">
          <mxGeometry x="-0.054" y="1" relative="1" as="geometry">
            <mxPoint as="offset" />
          </mxGeometry>
        </mxCell>
        <mxCell id="VeWhwkaKPU7mNa02MyYt-4" value="menu" style="html=1;" parent="1" vertex="1">
          <mxGeometry x="230" y="190" width="110" height="50" as="geometry" />
        </mxCell>
        <mxCell id="VeWhwkaKPU7mNa02MyYt-14" style="edgeStyle=orthogonalEdgeStyle;rounded=0;orthogonalLoop=1;jettySize=auto;html=1;fontFamily=Helvetica;" parent="1" source="VeWhwkaKPU7mNa02MyYt-5" target="VeWhwkaKPU7mNa02MyYt-12" edge="1">
          <mxGeometry relative="1" as="geometry" />
        </mxCell>
        <mxCell id="VeWhwkaKPU7mNa02MyYt-15" value="user active skinpoint button" style="edgeLabel;html=1;align=center;verticalAlign=middle;resizable=0;points=[];fontFamily=Helvetica;" parent="VeWhwkaKPU7mNa02MyYt-14" vertex="1" connectable="0">
          <mxGeometry x="-0.22" relative="1" as="geometry">
            <mxPoint as="offset" />
          </mxGeometry>
        </mxCell>
        <mxCell id="VeWhwkaKPU7mNa02MyYt-20" style="edgeStyle=orthogonalEdgeStyle;rounded=0;orthogonalLoop=1;jettySize=auto;html=1;exitX=0;exitY=0.5;exitDx=0;exitDy=0;entryX=0.5;entryY=1;entryDx=0;entryDy=0;fontFamily=Helvetica;" parent="1" source="VeWhwkaKPU7mNa02MyYt-5" target="VeWhwkaKPU7mNa02MyYt-1" edge="1">
          <mxGeometry relative="1" as="geometry" />
        </mxCell>
        <mxCell id="VeWhwkaKPU7mNa02MyYt-21" value="power button pressed /&amp;nbsp; battery is dead" style="edgeLabel;html=1;align=center;verticalAlign=middle;resizable=0;points=[];fontFamily=Helvetica;" parent="VeWhwkaKPU7mNa02MyYt-20" vertex="1" connectable="0">
          <mxGeometry x="-0.2412" relative="1" as="geometry">
            <mxPoint as="offset" />
          </mxGeometry>
        </mxCell>
        <mxCell id="VeWhwkaKPU7mNa02MyYt-30" style="edgeStyle=orthogonalEdgeStyle;rounded=0;orthogonalLoop=1;jettySize=auto;html=1;exitX=0.75;exitY=0;exitDx=0;exitDy=0;entryX=0.75;entryY=1;entryDx=0;entryDy=0;fontFamily=Helvetica;" parent="1" source="VeWhwkaKPU7mNa02MyYt-5" target="VeWhwkaKPU7mNa02MyYt-4" edge="1">
          <mxGeometry relative="1" as="geometry" />
        </mxCell>
        <mxCell id="VeWhwkaKPU7mNa02MyYt-31" value="user quit" style="edgeLabel;html=1;align=center;verticalAlign=middle;resizable=0;points=[];fontFamily=Helvetica;" parent="VeWhwkaKPU7mNa02MyYt-30" vertex="1" connectable="0">
          <mxGeometry x="0.3273" y="2" relative="1" as="geometry">
            <mxPoint x="1" as="offset" />
          </mxGeometry>
        </mxCell>
        <mxCell id="VeWhwkaKPU7mNa02MyYt-5" value="Program &lt;br&gt;Initialized" style="html=1;" parent="1" vertex="1">
          <mxGeometry x="230" y="350" width="110" height="50" as="geometry" />
        </mxCell>
        <mxCell id="VeWhwkaKPU7mNa02MyYt-18" style="edgeStyle=orthogonalEdgeStyle;rounded=0;orthogonalLoop=1;jettySize=auto;html=1;entryX=1;entryY=0.5;entryDx=0;entryDy=0;fontFamily=Helvetica;exitX=0.75;exitY=0;exitDx=0;exitDy=0;" parent="1" source="VeWhwkaKPU7mNa02MyYt-12" target="VeWhwkaKPU7mNa02MyYt-4" edge="1">
          <mxGeometry relative="1" as="geometry">
            <Array as="points">
              <mxPoint x="613" y="230" />
              <mxPoint x="340" y="230" />
            </Array>
            <mxPoint x="650" y="320" as="sourcePoint" />
          </mxGeometry>
        </mxCell>
        <mxCell id="VeWhwkaKPU7mNa02MyYt-29" value="program timeout / user quit" style="edgeLabel;html=1;align=center;verticalAlign=middle;resizable=0;points=[];fontFamily=Helvetica;" parent="VeWhwkaKPU7mNa02MyYt-18" vertex="1" connectable="0">
          <mxGeometry x="0.4047" y="-1" relative="1" as="geometry">
            <mxPoint as="offset" />
          </mxGeometry>
        </mxCell>
        <mxCell id="VeWhwkaKPU7mNa02MyYt-27" style="edgeStyle=orthogonalEdgeStyle;rounded=0;orthogonalLoop=1;jettySize=auto;html=1;exitX=0.5;exitY=1;exitDx=0;exitDy=0;entryX=0;entryY=0.5;entryDx=0;entryDy=0;fontFamily=Helvetica;" parent="1" source="VeWhwkaKPU7mNa02MyYt-12" target="VeWhwkaKPU7mNa02MyYt-1" edge="1">
          <mxGeometry relative="1" as="geometry">
            <Array as="points">
              <mxPoint x="595" y="500" />
              <mxPoint x="-70" y="500" />
              <mxPoint x="-70" y="215" />
            </Array>
          </mxGeometry>
        </mxCell>
        <mxCell id="VeWhwkaKPU7mNa02MyYt-28" value="power button pressed /&amp;nbsp; battery is dead" style="edgeLabel;html=1;align=center;verticalAlign=middle;resizable=0;points=[];fontFamily=Helvetica;" parent="VeWhwkaKPU7mNa02MyYt-27" vertex="1" connectable="0">
          <mxGeometry x="0.0067" relative="1" as="geometry">
            <mxPoint as="offset" />
          </mxGeometry>
        </mxCell>
        <mxCell id="VeWhwkaKPU7mNa02MyYt-12" value="treatment started" style="html=1;fontFamily=Helvetica;" parent="1" vertex="1">
          <mxGeometry x="530" y="350" width="110" height="50" as="geometry" />
        </mxCell>
        <mxCell id="VeWhwkaKPU7mNa02MyYt-32" value="Power On" style="shape=umlFrame;whiteSpace=wrap;html=1;fontFamily=Helvetica;" parent="1" vertex="1">
          <mxGeometry x="210" y="20" width="450" height="420" as="geometry" />
        </mxCell>
        <mxCell id="qGMp3sspVOGmjnkW1GYy-1" value="" style="ellipse;html=1;shape=startState;fillColor=#000000;strokeColor=#030000;" vertex="1" parent="1">
          <mxGeometry x="-95" y="140" width="30" height="30" as="geometry" />
        </mxCell>
        <mxCell id="qGMp3sspVOGmjnkW1GYy-2" value="" style="edgeStyle=orthogonalEdgeStyle;html=1;verticalAlign=bottom;endArrow=open;endSize=8;entryX=0.25;entryY=0;entryDx=0;entryDy=0;strokeColor=#050000;" edge="1" source="qGMp3sspVOGmjnkW1GYy-1" parent="1" target="VeWhwkaKPU7mNa02MyYt-1">
          <mxGeometry relative="1" as="geometry">
            <mxPoint x="-125" y="200" as="targetPoint" />
          </mxGeometry>
        </mxCell>
        <mxCell id="qGMp3sspVOGmjnkW1GYy-3" value="MCT-Simulator Start" style="text;html=1;align=center;verticalAlign=middle;resizable=0;points=[];autosize=1;strokeColor=none;" vertex="1" parent="1">
          <mxGeometry x="-140" y="110" width="120" height="20" as="geometry" />
        </mxCell>
        <mxCell id="qGMp3sspVOGmjnkW1GYy-8" style="edgeStyle=orthogonalEdgeStyle;rounded=0;orthogonalLoop=1;jettySize=auto;html=1;entryX=1;entryY=0.25;entryDx=0;entryDy=0;strokeColor=#050000;" edge="1" parent="1" source="qGMp3sspVOGmjnkW1GYy-6" target="VeWhwkaKPU7mNa02MyYt-4">
          <mxGeometry relative="1" as="geometry">
            <Array as="points">
              <mxPoint x="600" y="203" />
            </Array>
          </mxGeometry>
        </mxCell>
        <mxCell id="qGMp3sspVOGmjnkW1GYy-10" value="user quit" style="edgeLabel;html=1;align=center;verticalAlign=middle;resizable=0;points=[];" vertex="1" connectable="0" parent="qGMp3sspVOGmjnkW1GYy-8">
          <mxGeometry x="0.5008" relative="1" as="geometry">
            <mxPoint x="1" as="offset" />
          </mxGeometry>
        </mxCell>
        <mxCell id="qGMp3sspVOGmjnkW1GYy-6" value="Show Records /&amp;nbsp;&lt;br&gt;clear records" style="html=1;strokeColor=#030000;" vertex="1" parent="1">
          <mxGeometry x="540" y="80" width="110" height="50" as="geometry" />
        </mxCell>
      </root>
    </mxGraphModel>
  </diagram>
</mxfile>
